<?xml version="1.0" encoding="utf-8"?>
<!-- Generator: Adobe Illustrator 16.0.0, SVG Export Plug-In . SVG Version: 6.00 Build 0)  -->
<!DOCTYPE svg PUBLIC "-//W3C//DTD SVG 1.1//EN" "http://www.w3.org/Graphics/SVG/1.1/DTD/svg11.dtd">
<svg version="1.1" id="Layer_1" xmlns="http://www.w3.org/2000/svg" xmlns:xlink="http://www.w3.org/1999/xlink" x="0px" y="0px"
	 width="400px" height="100px" viewBox="0 0 400 100" enable-background="new 0 0 400 100" xml:space="preserve">
<line fill="none" stroke="#00FF9D" stroke-width="6" stroke-linecap="round" stroke-miterlimit="10" x1="123.25" y1="23.25" x2="128" y2="30.666"/>
<line fill="none" stroke="#00FF9D" stroke-width="6" stroke-linecap="round" stroke-miterlimit="10" x1="129.417" y1="19.25" x2="134.166" y2="26.666"/>
<path fill="none" stroke="#00FF9D" stroke-width="6" stroke-linecap="round" stroke-miterlimit="10" d="M107.5,25.583
	c0,0,0,43.501,0,44.667S106.667,73,104.75,73s-6.417-2.834-6.417-2.834"/>
<path fill="none" stroke="#00FF9D" stroke-width="6" stroke-linecap="round" stroke-miterlimit="10" d="M95.75,44.583
	c0,10.75-10.167,24.25-10.167,24.25"/>
<path fill="none" stroke="#00FF9D" stroke-width="6" stroke-linecap="round" stroke-miterlimit="10" d="M117.583,44.833
	c0,0,6.083,9.001,10.5,24.167"/>
<line fill="none" stroke="#00FF9D" stroke-width="6" stroke-linecap="round" stroke-miterlimit="10" x1="84.166" y1="37.083" x2="128.916" y2="37.083"/>
<line fill="none" stroke="#B20DB7" stroke-width="6" stroke-linecap="round" stroke-miterlimit="10" x1="184.5" y1="25.25" x2="189.25" y2="32.666"/>
<line fill="none" stroke="#B20DB7" stroke-width="6" stroke-linecap="round" stroke-miterlimit="10" x1="190.667" y1="21.25" x2="195.416" y2="28.666"/>
<path fill="none" stroke="#B20DB7" stroke-width="6" stroke-linecap="round" stroke-miterlimit="10" d="M145.25,31.875
	c0,0,30.125,0,32.75,0s3.562,2.375,3.562,3.562c0,25.312-22.312,36.875-31.875,36.875"/>
<path fill="none" stroke="#53545B" stroke-width="6" stroke-linecap="round" stroke-miterlimit="10" d="M209.5,29.125
	c0,0,36.125,0,38.75,0c4.5,0,4.875,3.25,3.312,5.5C243.989,45.53,229,59.375,229,59.375"/>
<path fill="none" stroke="#53545B" stroke-width="6" stroke-linecap="round" stroke-miterlimit="10" d="M215.438,45.812
	c0,0,17.188,15.75,23.062,25.438"/>
<line fill="none" stroke="#FCB400" stroke-width="6" stroke-linecap="round" stroke-miterlimit="10" x1="269.375" y1="39.625" x2="311" y2="32.875"/>
<line fill="none" stroke="#FCB400" stroke-width="6" stroke-linecap="round" stroke-miterlimit="10" x1="268.875" y1="58.375" x2="317.125" y2="50.125"/>
<line fill="none" stroke="#FCB400" stroke-width="6" stroke-linecap="round" stroke-miterlimit="10" x1="287.25" y1="24.5" x2="298.625" y2="73.25"/>
</svg>
